<svg width="120" height="23" viewBox="0 0 120 23" fill="none" xmlns="http://www.w3.org/2000/svg">
<g clip-path="url(#clip0)">
<path d="M16.2656 0.445312V4.61719H10.3125V22.5234H5.95312V4.59375H0V0.445312H16.2656ZM34.4531 22.5234L30 14.8594H26.6719V22.5234H22.3125V0.445312H31.1719C33.2109 0.445312 34.9453 1.14844 36.3984 2.57812C37.8516 4.00781 38.5547 5.74219 38.5547 7.75781C38.5547 9.11719 38.1562 10.3828 37.3828 11.5547C36.6094 12.7031 35.5547 13.6172 34.2891 14.1797L39.1875 22.5H34.4531V22.5234ZM26.6719 4.5V11.0391H31.1719C31.9922 11.0391 32.6953 10.7109 33.2812 10.0781C33.8672 9.44531 34.1719 8.67187 34.1719 7.75781C34.1719 6.84375 33.8672 6.09375 33.2812 5.46094C32.6953 4.82812 31.9922 4.52344 31.1719 4.52344H26.6719V4.5ZM55.5469 22.9453C52.3359 22.9453 49.6406 21.8437 47.4141 19.6172C45.1875 17.4141 44.0625 14.6953 44.0625 11.4844C44.0625 8.27344 45.1641 5.55469 47.3906 3.32812C49.6406 1.10156 52.3359 0 55.5469 0C58.7578 0 61.4766 1.10156 63.7031 3.32812C65.9297 5.55469 67.0547 8.27344 67.0547 11.4844C67.0547 14.6953 65.9297 17.4141 63.7031 19.6406C61.4766 21.8438 58.7578 22.9453 55.5469 22.9453ZM55.5469 18.7031C57.5625 18.7031 59.2734 18.0234 60.6328 16.6641C61.9922 15.3047 62.6953 13.5703 62.6953 11.4844C62.6953 9.39844 62.0156 7.64062 60.6328 6.28125C59.2734 4.92187 57.5625 4.24219 55.5469 4.24219C53.5312 4.24219 51.8203 4.92187 50.4609 6.28125C49.1016 7.64062 48.3984 9.375 48.3984 11.4844C48.3984 13.5938 49.0781 15.3047 50.4609 16.6641C51.8203 18.0234 53.5312 18.7031 55.5469 18.7031ZM81.4688 22.9453C78.2578 22.9453 75.5625 21.8437 73.3359 19.6172C71.1094 17.3906 70.0078 14.6719 70.0078 11.4609C70.0078 8.25 71.1094 5.53125 73.3359 3.30469C75.5625 1.10156 78.2813 0 81.4688 0C84.6797 0 87.3984 1.10156 89.625 3.32812C91.8516 5.55469 92.9766 8.27344 92.9766 11.4844C92.9766 14.6953 91.8516 17.4141 89.625 19.6406C87.3984 21.8438 84.6797 22.9453 81.4688 22.9453ZM81.4688 18.7031C83.4844 18.7031 85.1953 18.0234 86.5547 16.6641C87.9141 15.3047 88.6172 13.5703 88.6172 11.4844C88.6172 9.39844 87.9375 7.64062 86.5547 6.28125C85.1953 4.92187 83.4844 4.24219 81.4688 4.24219C79.4531 4.24219 77.7422 4.92187 76.3828 6.28125C75.0234 7.64062 74.3203 9.375 74.3203 11.4844C74.3203 13.5938 75 15.3047 76.3828 16.6641C77.7656 18.0234 79.4531 18.7031 81.4688 18.7031ZM109.359 0.445312C112.383 0.445312 114.937 1.5 116.953 3.63281C118.992 5.76563 120 8.36719 120 11.4844C120 14.6016 118.992 17.2031 116.953 19.3359C114.914 21.4688 112.383 22.5234 109.359 22.5234H97.875V0.445312H109.359ZM109.359 18.3516C111.281 18.3516 112.828 17.7187 114.047 16.4531C115.242 15.1875 115.852 13.5234 115.852 11.4844C115.852 9.44531 115.242 7.78125 114.047 6.51562C112.852 5.25 111.281 4.61719 109.359 4.61719H102.234V18.375H109.359V18.3516Z" fill="black"/>
<path d="M68.7891 19.125C72.8276 19.125 76.1016 15.914 76.1016 11.9531C76.1016 7.99221 72.8276 4.78125 68.7891 4.78125C64.7505 4.78125 61.4766 7.99221 61.4766 11.9531C61.4766 15.914 64.7505 19.125 68.7891 19.125Z" fill="#0088EE"/>
</g>
<defs>
<clipPath id="clip0">
<rect width="120" height="22.9453" fill="white"/>
</clipPath>
</defs>
</svg>
